<svg xmlns="http://www.w3.org/2000/svg" width="96" height="96" viewBox="0 0 96 96">
  <defs>
    <style>
      .cls-1 {
        fill: #1a1a1a;
        opacity: 0.5;
      }

      .cls-1, .cls-2 {
        fill-rule: evenodd;
      }

      .cls-2 {
        fill: #3f62c3;
      }
    </style>
  </defs>
  <path id="Shape_1_copy" data-name="Shape 1 copy" class="cls-1" d="M40,15c18.714-.286,22,21.286,24,22C66.143,35.429,81.557,9.261,83,8c1.839-1.607,5.571-2,8-1s2.75,6.268,1,9c-1.138,1.776-21.857,28.857-23,33s9.143,20.571,11,24,6.573,8.954,8,11c1.694,2.429,5.358,5.178,3,7-1.669,1.29-8.571.429-11-1s-8.143-8.143-10-11-7.714-15.429-9-18c-2.571-1-24.857,33.286-43,25S9,46.571,11,41,21.286,15.286,40,15Zm0,13c9,0.286,15.753,15.556,15,21-0.768,5.554-23.188,29.416-30,25-6.143-3.982-5.667-17.285-4-24C22.739,43,31,27.714,40,28Z"/>
  <path class="cls-2" d="M36,13c18.714-.286,22,21.286,24,22C62.143,33.429,77.557,7.261,79,6c1.839-1.607,5.571-2,8-1s2.75,6.268,1,9c-1.138,1.776-20.857,28.857-22,33s8.143,20.571,10,24,6.493,9.012,8,11c1.381,1.822,5.989,4.969,5,7-1.334,2.737-10.571.429-13-1s-8.143-8.143-10-11-7.714-15.429-9-18c-2.571-1-24.857,33.286-43,25S5,44.571,7,39,17.286,13.286,36,13Zm0,13c9,0.286,15.753,15.556,15,21-0.768,5.554-23.188,29.416-30,25-6.143-3.982-5.667-17.285-4-24C18.739,41,27,25.714,36,26Z"/>
</svg>